<?xml version="1.0" encoding="utf-8"?>
<!-- Generator: Adobe Illustrator 19.1.0, SVG Export Plug-In . SVG Version: 6.00 Build 0)  -->
<svg version="1.1" id="Layer_1" xmlns="http://www.w3.org/2000/svg" xmlns:xlink="http://www.w3.org/1999/xlink" x="0px" y="0px"
	 viewBox="-463 222 1280 800" style="enable-background:new -463 222 1280 800;" xml:space="preserve">
<style type="text/css">
	.st0{opacity:0.7;}
	.st1{opacity:0.4;fill:#FFFFFF;enable-background:new    ;}
	.st2{opacity:0.6;}
	.st3{fill:#FFFFFF;}
</style>
<g class="st0">
	<path class="st1" d="M-256.1,244.9c-0.5-4.1-3.4-6-9.3-6c-5.2,0-8.6,1.7-8.6,4.4c0,1.3,1,2.5,2.5,3c1.3,0.5,2.5,0.7,8,1.6
		c8.9,1.4,10.1,1.7,12,3.1c2.1,1.5,3.2,3.9,3.2,6.8c0,6.8-5.8,10.6-16.4,10.6s-15.9-3.5-17.1-11.5h6.7c0.5,4.2,4.1,6.4,10.5,6.4
		c6.2,0,9.7-1.7,9.7-4.8c0-1.3-0.7-2.5-2-3c-1.3-0.5-1.3-0.5-8.1-1.6c-6.3-1-8-1.4-10.2-2.3c-3.2-1.3-5.2-4.2-5.2-7.6
		c0-6.3,5.7-10.1,15.4-10.1c9.7,0,14.7,3.5,15.5,11.1h-6.6V244.9z"/>
	<path class="st1" d="M-207.2,251.3c0,9.8-8,16.9-19.1,16.9c-11.2,0-19.1-7.1-19.1-17.3c0-10.2,7.8-17.2,19.3-17.2
		C-214.9,233.8-207.2,241-207.2,251.3z M-238.7,251c0,7.3,5,12.2,12.4,12.2c7.3,0,12.4-4.9,12.4-11.9c0-7.4-4.9-12.4-12.3-12.4
		C-233.7,238.9-238.7,243.7-238.7,251z"/>
	<path class="st1" d="M-186.1,240h-7.6v27.4h-6.4V240h-5v-5.3h5v-4c0-6.3,2.3-8.3,9.6-8.3c1.7,0,2.7,0.1,4.5,0.3v5.6
		c-1.5-0.1-2.2-0.1-3.7-0.1c-3.3,0-4,0.5-4,3v3.5h7.6V240z"/>
	<path class="st1" d="M-173.6,234.7h7.6v5.3h-7.6v18.9c0,3,0.8,3.7,4.1,3.7c1.3,0,2-0.1,3.5-0.3v5.4c-2.5,0.3-3.7,0.5-5.2,0.5
		c-3.3,0-5.8-0.7-7.2-2.1c-1.3-1.3-1.7-2.7-1.7-6.9V240h-4.3v-5.3h4.3v-9.1h6.4v9.1H-173.6z"/>
	<path class="st1" d="M-128.7,267.4l-8.4-25.4l-8.5,25.4h-6.6l-12.5-32.7h6.8l8.9,25.4l8.4-25.4h7.3l8,25.4l8.8-25.4h6.8l-12.4,32.8
		h-6.6V267.4z"/>
	<path class="st1" d="M-107.6,245.5c0.3-3.2,0.9-4.9,2.3-6.6c2.7-3.4,7.4-5.1,14.2-5.1c5.4,0,9.3,0.9,12,2.7
		c2.3,1.5,3.2,3.8,3.2,7.8v14.5c0,3.2,0.8,4.3,3,4.3c0.4,0,0.9-0.1,1.5-0.1v4.4c-1.2,0.4-2,0.5-3.4,0.5c-4.1,0-5.9-1.3-7.2-4.9
		c-4,3.8-8.1,5.4-14,5.4c-7.9,0-12.8-3.7-12.8-9.8c0-3.5,1.9-6.6,5-8c2.4-1.1,3.9-1.4,10.7-2.1c5.8-0.6,6.8-0.7,8.5-1.3
		c1.8-0.6,2.6-1.6,2.6-3.3c0-3.5-2.9-5.1-8.8-5.1c-7,0-9.8,1.8-10.3,6.6L-107.6,245.5L-107.6,245.5z M-82,251.1
		c-3.6,1.1-7.4,1.9-12.6,2.4c-5.8,0.6-7.6,1.7-7.6,4.7c0,3.3,2.7,5,7.9,5c4.3,0,7.6-1.1,9.9-3.3c1.9-1.8,2.3-3.1,2.3-6.2v-2.6H-82z"
		/>
	<path class="st1" d="M-62.2,234.7v4.9c3.9-4.5,6.2-5.7,10.8-5.7c1.3,0,2.1,0.1,4,0.3v6.4c-1.9-0.5-2.9-0.6-4.3-0.6
		c-3.3,0-6.1,1.1-8.2,3.3c-1.8,1.9-2.3,3.3-2.3,6.2v17.9h-6.4v-32.7H-62.2z"/>
	<path class="st1" d="M-39.7,252.9c0.7,6.3,5.4,10.2,12.6,10.2c5.1,0,8.6-2,10.2-6h7c-3.3,7.4-9.1,11.1-17.8,11.1
		c-10.9,0-18.2-6.8-18.2-17.1c0-10.3,7.5-17.4,18.3-17.4c7.8,0,14.2,3.7,16.7,9.8c1.1,2.8,1.6,5.3,1.6,9.4
		C-9.3,252.9-39.7,252.9-39.7,252.9z M-15.9,247.9c-1.5-5.8-5.8-9-11.8-9s-10.3,3.3-11.8,9H-15.9z"/>
</g>
<g class="st2">
	<path class="st3" d="M-6.1,233.3v0.9h-1.8v4.6H-9v-4.6h-1.7v-0.9H-6.1z M-0.2,238.8l-0.2-3.2c0-0.4,0-0.9,0-1.5h-0.1
		c-0.1,0.5-0.3,1.1-0.5,1.6l-1,3h-1.1l-1-3.1c-0.1-0.4-0.3-1.1-0.4-1.6h-0.1c0,0.5,0,1,0,1.5l-0.2,3.2h-1l0.4-5.5h1.6l0.9,2.7
		c0.1,0.4,0.2,0.8,0.4,1.4l0,0c0.1-0.5,0.3-1,0.4-1.4l0.9-2.7h1.6l0.4,5.5h-1V238.8z"/>
</g>
<g>
	<g>
		<path class="st3" d="M-463,250.7v-26.3h2.6c2.1,0,3.9,1.7,3.9,3.7v11.7c3.8-3.2,7.1-4.7,11.1-5.1c10.3-0.8,19.2,6.6,19.3,16.5
			c0,9.7-7.6,16.8-17.4,16.8C-454.8,268-463,261.3-463,250.7z M-457,251.1c0,7,4.8,11.6,12.1,11.6c7.3,0,12.2-4.6,12.2-11.4
			c0-6.8-4.9-11.4-12.2-11.4C-452,239.9-457,244.5-457,251.1z"/>
	</g>
	<g>
		<g>
			<path class="st3" d="M-416.5,235.3v4.7c4.1-4.4,6.5-5.5,11.3-5.5c1.3,0,2.2,0.1,4.1,0.3v6.2c-1.9-0.4-3-0.6-4.5-0.6
				c-3.5,0-6.4,1.1-8.5,3.1c-1.9,1.8-2.4,3.2-2.4,6v17.3h-6.7v-31.6H-416.5z"/>
			<path class="st3" d="M-399.4,245.8c0.3-3.1,1-4.7,2.4-6.3c2.8-3.3,7.7-4.9,14.8-4.9c5.6,0,9.7,0.8,12.5,2.6
				c2.4,1.5,3.3,3.7,3.3,7.5v14c0,3.1,0.8,4.2,3.1,4.1c0.4,0,1-0.1,1.5-0.1v4.2c-1.2,0.4-2.1,0.5-3.5,0.5c-4.2,0-6.2-1.2-7.5-4.7
				c-4.2,3.7-8.4,5.2-14.6,5.2c-8.2,0-13.3-3.6-13.3-9.4c0-3.4,2-6.3,5.2-7.7c2.5-1,4-1.3,11.1-2.1c6.1-0.6,7.1-0.7,8.9-1.2
				c1.9-0.6,2.7-1.5,2.7-3.1c0-3.4-3-4.9-9.2-4.9c-5.9,0-8.9,1.1-10.1,4c-0.6,1.4-2,2.4-3.7,2.4H-399.4z M-372.8,251.2
				c-3.7,1.1-7.7,1.8-13.1,2.3c-6,0.6-7.9,1.7-7.9,4.6c0,3.2,2.8,4.9,8.2,4.9c4.5,0,7.9-1.1,10.3-3.2c1.9-1.7,2.4-2.9,2.4-6V251.2z"
				/>
			<path class="st3" d="M-345.6,266.9h-1.7c-1.5,0-2.9-0.8-3.6-2.1l-14.5-29.5h4c2.4,0,4.5,1.3,5.5,3.3l9.7,21.2l10-21.3
				c0.9-2,3.1-3.3,5.4-3.3h3.7l-14.8,29.5C-342.7,266.1-344,266.9-345.6,266.9z"/>
			<path class="st3" d="M-322.6,253c0.7,6.1,5.7,9.9,13.1,9.9c4.2,0,7.3-1.2,9.3-3.6c1.1-1.4,2.9-2.2,4.7-2.2l3.9,0
				c-3.4,7.2-9.5,10.7-18.5,10.7c-11.3,0-19-6.6-19-16.5c0-9.9,7.8-16.8,19.1-16.8c8.2,0,14.7,3.5,17.4,9.4c1.2,2.7,1.7,5.1,1.7,9
				H-322.6z M-297.9,248.1c-1.5-5.6-6-8.7-12.2-8.7c-6.3,0-10.7,3.1-12.3,8.7H-297.9z"/>
		</g>
	</g>
</g>
</svg>
